<svg xmlns="http://www.w3.org/2000/svg" width="24.282" height="29.512" viewBox="0 0 24.282 29.512"><defs><style>.a{fill:#0344b4;stroke:#0344b4;stroke-width:0.3px;fill-rule:evenodd;}.b{fill:#ff8b8b;stroke:#ff8b8b;stroke-width:0.5px;}</style></defs><g transform="translate(-45.69 0.15)"><path class="a" d="M68.11,2.282H66.4V1.712A1.714,1.714,0,0,0,64.687,0h0a1.714,1.714,0,0,0-1.712,1.712v.571H59.552V1.712A1.714,1.714,0,0,0,57.84,0h0a1.714,1.714,0,0,0-1.712,1.712v.571H52.705V1.712A1.714,1.714,0,0,0,50.993,0h0a1.714,1.714,0,0,0-1.712,1.712v.571H47.57a1.723,1.723,0,0,0-1.73,1.712V27.5a1.723,1.723,0,0,0,1.73,1.712H68.11A1.714,1.714,0,0,0,69.822,27.5V3.994A1.714,1.714,0,0,0,68.11,2.282Zm-3.994-.571a.571.571,0,0,1,1.141,0V3.994a.571.571,0,0,1-1.141,0Zm-6.847,0a.571.571,0,0,1,1.141,0V3.994a.571.571,0,0,1-1.141,0Zm-6.847,0a.571.571,0,0,1,1.141,0V3.994a.571.571,0,0,1-1.141,0ZM47.57,3.423h1.712v.571a1.712,1.712,0,1,0,3.423,0V3.423h3.423v.571a1.712,1.712,0,1,0,3.423,0V3.423h3.423v.571a1.712,1.712,0,1,0,3.423,0V3.423H68.11a.571.571,0,0,1,.571.571V7.417h-21.7V3.994A.588.588,0,0,1,47.57,3.423ZM68.11,28.071H47.57a.588.588,0,0,1-.589-.571V8.558h21.7V27.5A.571.571,0,0,1,68.11,28.071Z" transform="translate(0 0)"/><g transform="translate(53.664 14.345)"><path class="b" d="M4.677,0A4.677,4.677,0,1,0,9.354,4.677,4.682,4.682,0,0,0,4.677,0Zm0,8.77A4.092,4.092,0,1,1,8.77,4.677,4.1,4.1,0,0,1,4.677,8.77Z"/><path class="b" d="M208.379,83.118h-.585v3.044l1.84,1.84.413-.413-1.668-1.668Z" transform="translate(-203.409 -81.364)"/></g></g></svg>